HIERARCHY
ROOT Hips
{
  OFFSET 50.3712 85.5249 10.8116
  CHANNELS 6 Xposition Yposition Zposition Zrotation Xrotation Yrotation
  JOINT spine
  {
    OFFSET 0 6.3926 0.367606
    CHANNELS 3 Zrotation Xrotation Yrotation
    JOINT spine1
    {
      OFFSET 0 9.17611 0
      CHANNELS 3 Zrotation Xrotation Yrotation
      JOINT spine2
      {
        OFFSET 0 8.79238 0
        CHANNELS 3 Zrotation Xrotation Yrotation
        JOINT Neck
        {
          OFFSET 0 22.5737 1.07624
          CHANNELS 3 Zrotation Xrotation Yrotation
          JOINT Head
          {
            OFFSET 0 6.82011 0
            CHANNELS 3 Zrotation Xrotation Yrotation
            End Site
            {
              OFFSET 0 16.5085 -5.44427
            }
          }
        }
        JOINT RightShoulder
        {
          OFFSET -3.70221 9.49509 -0.515508
          CHANNELS 3 Zrotation Xrotation Yrotation
          JOINT RightArm
          {
            OFFSET 0 12.4537 0
            CHANNELS 3 Zrotation Xrotation Yrotation
            JOINT RightArmRoll
            {
              OFFSET 0 6.28686 0
              CHANNELS 3 Zrotation Xrotation Yrotation
              JOINT RightForeArm
              {
                OFFSET 0 18.3114 0
                CHANNELS 3 Zrotation Xrotation Yrotation
                JOINT RightForeArmRoll
                {
                  OFFSET 0 7.05482 0
                  CHANNELS 3 Zrotation Xrotation Yrotation
                  JOINT RightHand
                  {
                    OFFSET 0 14.1575 0
                    CHANNELS 3 Zrotation Xrotation Yrotation
                    End Site
                    {
                      OFFSET 0 0 0
                    }
                  }
                }
              }
            }
          }
        }
        JOINT LeftShoulder
        {
          OFFSET 3.70221 9.49509 -0.515508
          CHANNELS 3 Zrotation Xrotation Yrotation
          JOINT LeftArm
          {
            OFFSET 0 12.4537 0
            CHANNELS 3 Zrotation Xrotation Yrotation
            JOINT LeftArmRoll
            {
              OFFSET 0 6.28685 0
              CHANNELS 3 Zrotation Xrotation Yrotation
              JOINT LeftForeArm
              {
                OFFSET 0 18.3114 0
                CHANNELS 3 Zrotation Xrotation Yrotation
                JOINT LeftForeArmRoll
                {
                  OFFSET 0 7.05482 0
                  CHANNELS 3 Zrotation Xrotation Yrotation
                  JOINT LeftHand
                  {
                    OFFSET 0 14.1575 0
                    CHANNELS 3 Zrotation Xrotation Yrotation
                    End Site
                    {
                      OFFSET 0 0 0
                    }
                  }
                }
              }
            }
          }
        }
      }
    }
  }
  JOINT RightUpLeg
  {
    OFFSET -5.66616 -1.03903 -0.87161
    CHANNELS 3 Zrotation Xrotation Yrotation
    JOINT RightUpLegRoll
    {
      OFFSET 0 16.6005 0
      CHANNELS 3 Zrotation Xrotation Yrotation
      JOINT RightLeg
      {
        OFFSET 0 -20.5572 0
        CHANNELS 3 Zrotation Xrotation Yrotation
        JOINT RightLegRoll
        {
          OFFSET 0 20.6244 0
          CHANNELS 3 Zrotation Xrotation Yrotation
          JOINT RightFoot
          {
            OFFSET 0 17.1664 0
            CHANNELS 3 Zrotation Xrotation Yrotation
            JOINT RightToeBase
            {
              OFFSET 0 14.3502 0
              CHANNELS 3 Zrotation Xrotation Yrotation
              End Site
              {
                OFFSET 0.00608252 6.94971 -0.801061
              }
            }
          }
        }
      }
    }
  }
  JOINT LeftUpLeg
  {
    OFFSET 5.66616 -1.03903 -0.87161
    CHANNELS 3 Zrotation Xrotation Yrotation
    JOINT LeftUpLegRoll
    {
      OFFSET 0 16.6006 0
      CHANNELS 3 Zrotation Xrotation Yrotation
      JOINT LeftLeg
      {
        OFFSET 0 20.5571 0
        CHANNELS 3 Zrotation Xrotation Yrotation
        JOINT LeftLegRoll
        {
          OFFSET 0 20.8151 0
          CHANNELS 3 Zrotation Xrotation Yrotation
          JOINT LeftFoot
          {
            OFFSET 0 16.9757 0
            CHANNELS 3 Zrotation Xrotation Yrotation
            JOINT LeftToeBase
            {
              OFFSET 0 14.3502 0
              CHANNELS 3 Zrotation Xrotation Yrotation
              End Site
              {
                OFFSET -0.0272592 6.9497 -0.801061
              }
            }
          }
        }
      }
    }
  }
}
MOTION
Frames: 10
Frame Time: 0.00208333
48.739 90.5727 5.02328 1.78251 4.26839 1.86647 -0.693161 -2.10361 -0.120515 -1.3879 -0.203681 -0.182762 -1.38611 1.44111 -0.159577 3.45477 19.9234 -2.062 0.01046 2.36942 -0.769474 58.3222 -7.61996 -4.73555 80.3377 16.7842 40.4019 -6.778e-006 2.31419e-007 -5.67142e-006 -6.24277 0.806412 -0.300168 -2.37225e-006 -1.5087e-006 -3.02016 8.02895 -4.95142 0.697699 -54.6392 -7.68952 4.64767 -86.7487 8.79612 -0.402916 4.8511e-006 1.49237e-006 4.37307e-006 -19.7964 38.3189 8.77589 -3.49925e-006 -5.41718e-006 3 -8.02888 -4.95142 -0.697677 175.352 15.1558 2.60694 180 7.01562e-015 178.989 175.865 25.1285 179.809 -2.4583e-006 1.70791e-006 0.330847 -17.5424 67.1622 18.8773 8.1094 24.7775 -3.16685 -179.373 12.4715 3.27922 4.54188e-006 -4.6773e-006 -1.00799 0.00690861 -21.6372 0.755818 4.12324e-006 2.73712e-007 -0.245062 17.9853 67.2445 -18.9467 -8.10281 24.7419 3.55397 
48.7722 90.4275 4.96329 1.7953 4.27113 1.83044 -0.688791 -2.10139 -0.122371 -1.3792 -0.199222 -0.185214 -1.37738 1.44558 -0.162175 3.38524 20.0125 -2.03216 0.0740544 2.16102 -0.758883 58.7349 -7.27999 -4.53181 80.4178 16.7228 40.5265 -6.778e-006 2.31419e-007 -5.67142e-006 -6.3898 0.61233 -0.293125 -2.37225e-006 -1.5087e-006 -3.02313 8.02895 -4.95142 0.697699 -55.2003 -7.55146 4.57343 -86.7744 8.69629 -0.226176 4.8511e-006 1.49237e-006 4.37307e-006 -20.1839 37.3484 8.68061 -3.49925e-006 -5.41718e-006 3 -8.02888 -4.95142 -0.697677 175.487 15.2657 2.56377 180 7.01562e-015 178.993 175.804 25.2716 179.825 -2.4583e-006 1.70791e-006 0.332744 -17.5547 67.1885 18.8963 8.11057 24.7994 -3.18217 -179.57 12.5062 3.4289 4.54188e-006 -4.6773e-006 -1.00591 0.0424726 -21.7177 0.764621 4.12324e-006 2.73712e-007 -0.246697 17.9971 67.265 -18.9609 -8.10446 24.7655 3.5508 
48.7542 90.2844 4.9763 1.80936 4.2752 1.7975 -0.684297 -2.09834 -0.12391 -1.37024 -0.19311 -0.187177 -1.36839 1.45169 -0.164289 3.31033 20.0784 -2.00067 0.139179 1.96905 -0.748853 59.1346 -6.95561 -4.33944 80.5269 16.6692 40.5895 -6.778e-006 2.31419e-007 -5.67142e-006 -6.49219 0.43345 -0.290181 -2.37225e-006 -1.5087e-006 -3.02638 8.02895 -4.95142 0.697699 -55.7561 -7.41902 4.50374 -86.806 8.60744 -0.0650734 4.8511e-006 1.49237e-006 4.37307e-006 -20.5344 36.3784 8.56861 -3.49925e-006 -5.41718e-006 3 -8.02888 -4.95142 -0.697677 175.615 15.3808 2.52537 180 7.01563e-015 178.997 175.744 25.43 179.842 -2.4583e-006 1.70791e-006 0.33477 -17.568 67.215 18.9157 8.11341 24.8513 -3.21865 -179.769 12.5478 3.57866 4.54188e-006 -4.6773e-006 -1.0039 0.078599 -21.8137 0.773879 4.12324e-006 2.73712e-007 -0.248392 18.007 67.2826 -18.9729 -8.10835 24.8214 3.54326 
48.8121 90.1126 4.95078 1.82495 4.28065 1.76808 -0.67968 -2.09434 -0.12502 -1.36102 -0.185107 -0.188472 -1.35916 1.4597 -0.165739 3.22997 20.1183 -1.96754 0.20527 1.79601 -0.739464 59.5193 -6.64871 -4.15921 80.6691 16.6233 40.5813 -6.778e-006 2.31419e-007 -5.67142e-006 -6.54264 0.267569 -0.292039 -2.37225e-006 -1.5087e-006 -3.0299 8.02895 -4.95142 0.697699 -56.3049 -7.29232 4.43833 -86.8459 8.52965 0.0791513 4.8511e-006 1.49237e-006 4.37307e-006 -20.842 35.4119 8.43853 -3.49925e-006 -5.41718e-006 3 -8.02888 -4.95142 -0.697677 175.737 15.5018 2.49241 180 7.01564e-015 179 175.684 25.6055 179.86 -2.4583e-006 1.70791e-006 0.336949 -17.5824 67.2419 18.9355 8.1183 24.9379 -3.27953 -179.97 12.5973 3.72853 4.54188e-006 -4.6773e-006 -1.00197 0.115193 -21.928 0.783646 4.12324e-006 2.73712e-007 -0.250181 18.0149 67.2972 -18.9827 -8.11481 24.9147 3.53068 
48.7936 89.9573 4.94578 1.84233 4.28755 1.74261 -0.674939 -2.08927 -0.12559 -1.35155 -0.174973 -0.188921 -1.34969 1.46984 -0.166347 3.14411 20.1291 -1.93278 0.271761 1.64439 -0.730795 59.8873 -6.36117 -3.99186 80.8487 16.5849 40.492 -6.778e-006 2.31419e-007 -5.67142e-006 -6.53383 0.112482 -0.299404 -2.37225e-006 -1.5087e-006 -3.03373 8.02895 -4.95142 0.697699 -56.8451 -7.17148 4.37694 -86.8963 8.46298 0.205255 4.8511e-006 1.49237e-006 4.37307e-006 -21.1007 34.4519 8.28903 -3.49925e-006 -5.41718e-006 3 -8.02888 -4.95142 -0.697677 175.85 15.629 2.46553 180 7.01565e-015 179.004 175.625 25.7999 179.878 -2.4583e-006 1.70791e-006 0.339298 -17.5979 67.2692 18.9558 8.12576 25.0635 -3.3681 179.826 12.6557 3.87858 4.54188e-006 -4.6773e-006 -1.00012 0.152162 -22.0635 0.793981 4.12324e-006 2.73712e-007 -0.252099 18.0208 67.3087 -18.9902 -8.12411 25.0502 3.5124 
48.8321 89.7852 4.92145 1.86178 4.29598 1.72149 -0.670074 -2.08302 -0.125508 -1.34181 -0.162467 -0.188346 -1.33996 1.48235 -0.165935 3.05271 20.1079 -1.89638 0.338085 1.51671 -0.722923 60.2368 -6.09486 -3.83815 81.0697 16.5533 40.3122 -6.778e-006 2.31419e-007 -5.67142e-006 -6.45846 -0.0340152 -0.312981 -2.37225e-006 -1.5087e-006 -3.03788 8.02895 -4.95142 0.697699 -57.3752 -7.05662 4.31933 -86.9594 8.40751 0.311992 4.8511e-006 1.49237e-006 4.37307e-006 -21.3048 33.5014 8.11872 -3.49925e-006 -5.41718e-006 3 -8.02888 -4.95142 -0.697677 175.954 15.7632 2.44541 180 7.01566e-015 179.007 175.566 26.015 179.897 -2.4583e-006 1.70791e-006 0.34184 -17.6147 67.2968 18.9764 8.13649 25.2327 -3.48774 179.62 12.724 4.02887 4.54188e-006 -4.6773e-006 -0.998348 0.18942 -22.2231 0.804941 4.12324e-006 2.73712e-007 -0.25418 18.0245 67.3169 -18.9952 -8.13649 25.2327 3.48774 
48.8287 89.6137 4.9145 1.88021 4.30421 1.70478 -0.66467 -2.07523 -0.124968 -1.33099 -0.146894 -0.187121 -1.32915 1.49793 -0.164891 2.96091 20.0543 -1.85724 0.399253 1.41506 -0.713977 60.5737 -5.85062 -3.7 81.3343 16.5304 40.0312 -6.778e-006 2.31419e-007 -5.67142e-006 -6.30926 -0.159345 -0.333361 -2.37225e-006 -1.5087e-006 -3.04258 8.02895 -4.95142 0.697699 -57.8988 -6.95075 4.26827 -87.0289 8.36485 0.406872 4.8511e-006 1.49237e-006 4.37307e-006 -21.4698 32.5479 7.92157 -3.49925e-006 -5.41718e-006 3 -8.02888 -4.95142 -0.697677 176.052 15.8998 2.43069 180 7.01566e-015 179.011 175.504 26.2413 179.917 -2.4583e-006 1.70791e-006 0.343304 -17.6103 67.3074 18.9826 8.15163 25.4521 -3.65625 179.412 12.7955 4.17851 4.54188e-006 -4.6773e-006 -0.996303 0.227047 -22.3906 0.816306 4.12324e-006 2.73712e-007 -0.254729 18.0143 67.3029 -18.9838 -8.15221 25.4685 3.45236 
48.9176 89.4391 4.95335 1.89504 4.31091 1.69199 -0.658422 -2.06578 -0.124238 -1.31848 -0.128018 -0.185729 -1.31666 1.51681 -0.163709 2.87263 19.9711 -1.81454 0.452251 1.33812 -0.702493 60.9052 -5.62693 -3.57783 81.639 16.517 39.6527 -6.778e-006 2.31419e-007 -5.67142e-006 -6.08941 -0.251738 -0.360161 -2.37225e-006 -1.5087e-006 -3.04797 8.02895 -4.95142 0.697699 -58.4205 -6.85595 4.22611 -87.0974 8.33613 0.496866 4.8511e-006 1.49237e-006 4.37307e-006 -21.6163 31.5783 7.69579 -3.49925e-006 -5.41718e-006 3 -8.02888 -4.95142 -0.697677 176.148 16.035 2.41965 180 7.01567e-015 179.015 175.438 26.47 179.937 -2.4583e-006 1.70791e-006 0.342735 -17.5678 67.2882 18.9632 8.17234 25.7213 -3.88334 179.206 12.8639 4.32681 4.54188e-006 -4.6773e-006 -0.993735 0.265209 -22.5511 0.827848 4.12324e-006 2.73712e-007 -0.252464 17.9818 67.2533 -18.9459 -8.17093 25.7567 3.40381 
48.9088 89.2658 4.9331 1.90732 4.31672 1.68282 -0.651496 -2.05492 -0.123324 -1.30461 -0.106295 -0.18415 -1.30282 1.53853 -0.162362 2.78597 19.8609 -1.76878 0.499467 1.28322 -0.689157 61.2308 -5.42217 -3.47018 81.9795 16.5115 39.1879 -6.778e-006 2.31419e-007 -5.67142e-006 -5.8072 -0.314609 -0.392627 -2.37225e-006 -1.5087e-006 -3.05395 8.02895 -4.95142 0.697699 -58.94 -6.77095 4.1919 -87.1662 8.32067 0.579917 4.8511e-006 1.49237e-006 4.37307e-006 -21.7456 30.5951 7.44619 -3.49925e-006 -5.41718e-006 3 -8.02888 -4.95142 -0.697677 176.241 16.1702 2.41234 180 7.01568e-015 179.02 175.367 26.7034 179.958 -2.4583e-006 1.70791e-006 0.340626 -17.4965 67.2461 18.9244 8.19961 26.034 -4.16029 179 12.9312 4.4741 4.54188e-006 -4.6773e-006 -0.990782 0.30396 -22.7089 0.839623 4.12324e-006 2.73712e-007 -0.248036 17.9318 67.1756 -18.8876 -8.19191 26.0911 3.34418 
48.8933 89.0646 4.8558 1.91809 4.32227 1.67693 -0.64406 -2.04285 -0.12223 -1.28972 -0.0821785 -0.182365 -1.28795 1.56266 -0.160827 2.69906 19.7259 -1.72046 0.543285 1.24767 -0.674654 61.5501 -5.23469 -3.37562 82.3514 16.5121 38.6479 -6.778e-006 2.3142e-007 -5.67142e-006 -5.47089 -0.351372 -0.430004 -2.37225e-006 -1.5087e-006 -3.06041 8.02895 -4.95142 0.697699 -59.4574 -6.69447 4.16467 -87.2365 8.3178 0.653964 4.8511e-006 1.49237e-006 4.37307e-006 -21.8581 29.6005 7.17732 -3.49925e-006 -5.41718e-006 3 -8.02888 -4.95142 -0.697677 176.329 16.3066 2.40884 180 7.01569e-015 179.025 175.294 26.9442 179.98 -2.4583e-006 1.7079e-006 0.33747 -17.4053 67.1881 18.8723 8.23436 26.3838 -4.47841 178.794 12.9993 4.6207 4.54188e-006 -4.6773e-006 -0.987583 0.343354 -22.8683 0.851688 4.12324e-006 2.73711e-007 -0.2421 17.8697 67.0775 -18.8148 -8.21446 26.4656 3.27558 
